<svg xmlns="http://www.w3.org/2000/svg" xmlns:xlink="http://www.w3.org/1999/xlink" width="500" height="190.647" viewBox="0 0 500 190.647">
  <defs>
    <clipPath id="clip-Pacific_Wordmark-2Color">
      <rect width="500" height="190.647"/>
    </clipPath>
  </defs>
  <g id="Pacific_Wordmark-2Color" data-name="Pacific Wordmark-2Color" clip-path="url(#clip-Pacific_Wordmark-2Color)">
    <rect width="500" height="190.647" fill="#fff"/>
    <g id="Pacific-Wordmark-2Color-Digital" transform="translate(250.5 92.937)">
      <g id="Group_949" data-name="Group 949" transform="translate(-222.5 -64.937)">
        <g id="Group_948" data-name="Group 948">
          <path id="Path_4055" data-name="Path 4055" d="M166.176,211.65c0-1.194-.385-2.31-1.926-2.31v-.693c1.194,0,2.349.154,3.5.154,1.309,0,2.463-.154,3.426-.154v.693c-1.309,0-1.694,1.116-1.694,2.31l-.115,20.865a2.05,2.05,0,0,0,2.233,2.31v.693c-.963,0-1.926-.154-2.887-.154s-1.926.154-2.887.154v-.269a1.428,1.428,0,0,0,.384-1.04v-1.887c-2.655,1.81-5.582,3.658-9.2,3.658-5.7,0-9.624-3.619-9.624-9.856l-.116-14.474c0-1.194-.539-2.31-2-2.31v-.693c1.232,0,2.386.154,3.579.154,1.309,0,2.464-.154,3.58-.154v.693c-1.462,0-1.847,1.116-1.847,2.31l-.116,14.32c0,6.083,4.235,8.008,7.314,8.008,3,0,7.007-1.231,8.508-3.657Z" transform="translate(-145.273 -208.185)" fill="#a29889"/>
          <path id="Path_4056" data-name="Path 4056" d="M187.9,208.647h.847c1.232,1.309,2.348,2.772,3.619,4.081l16.515,17.093v-12.7c0-6.737-.462-7.276-2.964-7.776v-.693c1.5,0,2.618.154,3.735.154s2.233-.154,3.349-.154v.693c-2.079.5-2.541,1.04-2.541,3v23.176h-.847l-19.787-20.442v14.668c0,4.042.462,4.581,2.7,5.081v.693c-1.271,0-2.388-.154-3.5-.154-1.462,0-2.579.154-3.541.154v-.693c1.964-.5,2.425-1.04,2.425-3Z" transform="translate(-150.793 -208.185)" fill="#a29889"/>
          <path id="Path_4057" data-name="Path 4057" d="M234.413,209.34c-1.5,0-1.925,1.116-1.925,2.31l-.192,20.865c0,1.193.616,2.31,1.77,2.31v.693c-.808,0-1.964-.154-3.272-.154-1.154,0-2.309.154-3.08.154v-.693c1.078,0,1.694-1.117,1.694-2.31l-.192-20.865c0-1.194-.424-2.31-1.925-2.31v-.693c1.193,0,2.348.154,3.5.154,1.309,0,2.464-.154,3.619-.154Z" transform="translate(-156.534 -208.185)" fill="#a29889"/>
          <path id="Path_4058" data-name="Path 4058" d="M254.9,235.98l-9.932-24.831c-.616-1.54-.846-1.655-1.925-1.809v-.693c1.193,0,2.387.154,3.58.154s2.387-.154,3.58-.154v.693c-.385.078-1.424.308-1.424.693a6.143,6.143,0,0,0,.424,1.54l6.89,19.518,7.007-17.516a8.507,8.507,0,0,0,.5-2.542c0-1.193-.346-1.5-1.656-1.693v-.693c1.117,0,2.233.154,3.35.154s2.233-.154,3.388-.154v.693c-1.348.154-1.771.693-2.388,2.156L255.939,235.98Z" transform="translate(-158.696 -208.185)" fill="#a29889"/>
          <path id="Path_4059" data-name="Path 4059" d="M296.7,212.77H296c-.385-1.732-1.809-2.734-5.043-2.734h-6.005a65.255,65.255,0,0,0-.308,7.084v3.889h6.737c2.156,0,2.887-.5,3.309-1.964h.694c-.039.808-.116,1.693-.116,2.579s.077,1.771.116,2.618h-.694c-.423-1.425-1.154-1.925-3.309-1.925h-6.737v11.665h8.006a4.1,4.1,0,0,0,4.235-2.657l.617.116-.578,4.2a24.944,24.944,0,0,0-5.12-.346h-12.4v-.539c1.579-.078,2.156-.616,2.156-2.31v-10.7c0-11.934-.154-12.242-2.156-12.319v-.694h15.322c.848,0,1.078-.23,1.271-.616h.693Z" transform="translate(-163.689 -208.111)" fill="#a29889"/>
          <path id="Path_4060" data-name="Path 4060" d="M312.159,222.046c0-3.465-.154-6.968-.154-9.741,0-2-.424-3-2.118-3v-.693c1.849,0,5.16-.231,7.2-.231,5.313,0,10.279,2,10.279,7.969,0,3.581-3.195,6.121-6.506,6.968l8.508,9.894a4.664,4.664,0,0,0,2.425,1.579v.693c-1,0-2-.154-3-.154s-2,.154-3,.154v-.693c.116-.078.308-.193.308-.27a1.523,1.523,0,0,0-.308-.615L319.2,225.9a5.669,5.669,0,0,0-3.964-2.195v8.777c0,1.193.5,2.31,1.808,2.31v.693c-.962,0-2.117-.154-3.426-.154-1.155,0-2.31.154-3.272.154v-.693c1.309,0,1.809-1.117,1.809-2.31Zm3.081.423a9.95,9.95,0,0,0,1.769.231c4.235,0,7.008-2.541,7.008-6.429a6.351,6.351,0,0,0-6.775-6.737c-1.541,0-1.849.077-1.849,1.309,0,1.771-.154,3.85-.154,5.5Z" transform="translate(-167.874 -208.148)" fill="#a29889"/>
          <path id="Path_4061" data-name="Path 4061" d="M357.6,212.962c-.808-2.5-3.581-3.618-6.006-3.618-3.118,0-6.121,1.616-6.121,5.119,0,8.277,13.59,4.62,13.59,13.821,0,5-3.619,7.623-8.354,7.623a25.67,25.67,0,0,1-7.123-1.116l-.154-4h.694c.885,2.733,3.965,3.887,6.544,3.887,3.041,0,5.7-1.5,5.7-4.888,0-8.162-13.589-3.889-13.589-13.821,0-5.583,4.389-7.854,9.431-7.854,2,0,3.927.616,5.929.539l.154,4.312Z" transform="translate(-172.389 -208.111)" fill="#a29889"/>
          <path id="Path_4062" data-name="Path 4062" d="M378.143,209.34c-1.5,0-1.925,1.116-1.925,2.31l-.192,20.865c0,1.193.615,2.31,1.771,2.31v.693c-.809,0-1.963-.154-3.273-.154-1.155,0-2.309.154-3.079.154v-.693c1.078,0,1.693-1.117,1.693-2.31l-.192-20.865c0-1.194-.423-2.31-1.925-2.31v-.693c1.194,0,2.348.154,3.5.154,1.31,0,2.464-.154,3.619-.154Z" transform="translate(-176.267 -208.185)" fill="#a29889"/>
          <path id="Path_4063" data-name="Path 4063" d="M393.4,210.306c-2.5,0-3.348.654-4.041,2.7h-.694l-.154-4.89h.192a7.224,7.224,0,0,0,2.272.462c3.158,0,6.313.154,9.471.154s6.313-.154,9.47-.154a7.215,7.215,0,0,0,2.272-.462h.191l-.153,4.89h-.693c-.692-2.041-1.54-2.7-4.042-2.7H402.1l-.116,22.135c0,1.425.578,1.81,2.58,2.31v.693c-1.386,0-2.773-.154-4.158-.154s-2.773.154-4.157.154v-.693c2.117-.5,2.656-.885,2.656-2.31l-.116-22.135Z" transform="translate(-178.668 -208.111)" fill="#a29889"/>
          <path id="Path_4064" data-name="Path 4064" d="M434.252,223.121l-6.814-11.01a6.383,6.383,0,0,0-3-2.772v-.693c1.192,0,2.386.154,3.579.154s2.386-.154,3.58-.154v.693c-.884.192-1.386.539-1.386,1.232a3.629,3.629,0,0,0,.5,1.424l5.581,9.393,5.736-9.162a4.748,4.748,0,0,0,.885-1.887c0-.77-.654-.923-1.269-1v-.693c1,0,2,.154,3,.154s2-.154,3-.154v.693c-1.923.693-5.235,5-6.7,7.314l-3.617,5.737v10.124c0,1.193.5,2.31,1.885,2.31v.693c-1.039,0-2.195-.154-3.5-.154-1.155,0-2.309.154-3.427.154v-.693c1.463,0,1.964-1.117,1.964-2.31Z" transform="translate(-183.6 -208.185)" fill="#a29889"/>
          <path id="Path_4065" data-name="Path 4065" d="M487.552,208.111a13.9,13.9,0,1,1-13.9,13.9A13.562,13.562,0,0,1,487.552,208.111Zm0,26.563c7.2,0,10.239-5.621,10.239-12.665s-3.041-12.665-10.239-12.665-10.24,5.62-10.24,12.665S480.353,234.674,487.552,234.674Z" transform="translate(-190.358 -208.111)" fill="#a29889"/>
          <path id="Path_4066" data-name="Path 4066" d="M520.825,221.082h5.121c2.156,0,2.887-.5,3.31-2.118h.694c-.038.963-.115,1.848-.115,2.733a24.177,24.177,0,0,0,.192,2.772h-.694c-.5-1.579-1.231-2.078-3.387-2.078h-5.121v10.163c0,1.193.5,2.31,1.81,2.31v.693c-.962,0-2.117-.154-3.426-.154-1.155,0-2.309.154-3.273.154v-.693c1.31,0,1.81-1.117,1.81-2.31V220.62c0-6.237-.423-9.355-.693-10.51-.077-.346-.424-.538-1.809-.615V208.8h10.2c2.234,0,3.926-.154,5.236-.154v3.965h-.693a2.411,2.411,0,0,0-2.773-2.5h-6.391Z" transform="translate(-196.068 -208.185)" fill="#a29889"/>
          <path id="Path_4067" data-name="Path 4067" d="M564.043,210.306c-2.5,0-3.35.654-4.043,2.7h-.693l-.155-4.89h.194a7.209,7.209,0,0,0,2.271.462c3.156,0,6.313.154,9.469.154s6.314-.154,9.472-.154a7.224,7.224,0,0,0,2.271-.462h.192l-.154,4.89h-.695c-.692-2.041-1.538-2.7-4.042-2.7h-5.389l-.115,22.135c0,1.425.577,1.81,2.579,2.31v.693c-1.386,0-2.771-.154-4.157-.154s-2.772.154-4.158.154v-.693c2.118-.5,2.656-.885,2.656-2.31l-.116-22.135Z" transform="translate(-202.096 -208.111)" fill="#a29889"/>
          <path id="Path_4068" data-name="Path 4068" d="M600.722,222.275v10.239c0,1.193.5,2.31,1.424,2.31v.693c-.576,0-1.732-.154-3.04-.154-1.155,0-2.309.154-2.888.154v-.693c.925,0,1.5-1.117,1.5-2.31v-14.09c-.039-8.777-.269-9.24-1.887-9.085v-.693c.964,0,2.118.154,3.273.154,1.308,0,2.464-.154,3.425-.154v.693c-1.308,0-1.732,1.116-1.732,2.31l-.077,9.046h17.671l-.077-9.046c0-1.194-.424-2.31-1.732-2.31v-.693c.962,0,2.117.154,3.425.154,1.156,0,2.311-.154,3.273-.154v.693c-1.618-.154-1.848.308-1.887,9.085v14.09c0,1.193.577,2.31,1.5,2.31v.693c-.577,0-1.732-.154-2.888-.154-1.308,0-2.463.154-3.04.154v-.693c.923,0,1.424-1.117,1.424-2.31V222.275Z" transform="translate(-207.132 -208.185)" fill="#a29889"/>
          <path id="Path_4069" data-name="Path 4069" d="M654.752,212.77h-.694c-.385-1.732-1.808-2.734-5.042-2.734H643.01a65.488,65.488,0,0,0-.308,7.084v3.889h6.737c2.156,0,2.888-.5,3.312-1.964h.692c-.038.808-.116,1.693-.116,2.579s.078,1.771.116,2.618h-.692c-.424-1.425-1.156-1.925-3.312-1.925H642.7v11.665h8.008a4.1,4.1,0,0,0,4.234-2.657l.616.116-.577,4.2a24.958,24.958,0,0,0-5.121-.346h-12.4v-.539c1.578-.078,2.156-.616,2.156-2.31v-10.7c0-11.934-.154-12.242-2.156-12.319v-.694h15.322c.846,0,1.077-.23,1.27-.616h.694Z" transform="translate(-212.848 -208.111)" fill="#a29889"/>
        </g>
        <path id="Path_4070" data-name="Path 4070" d="M151.441,265.163c0-3.89-1.631-7.53-6.149-7.53v-2.258c4.769,0,9.537.5,14.306.5s9.536-.5,14.305-.5c13.3,0,28.11,6.777,28.11,25.224,0,15.938-14.431,24.722-28.738,24.722-4.266,0-8.032-.5-11.546-.754l-.25,28.613c0,3.89,1.631,7.529,5.9,7.529v2.259c-3.137,0-6.9-.5-11.169-.5-3.765,0-7.53.5-10.667.5v-2.259c4.267,0,5.9-3.639,5.9-7.529Zm10.29,32.251c0,2.636.753,4.894,10.04,4.894,14.807,0,19.325-10.039,19.325-21.961,0-11.169-4.142-21.71-20.832-21.71-6.526,0-8.031.753-8.031,6.275,0,2.635-.5,8.407-.5,15.937Z" transform="translate(-145.276 -214.6)" fill="#ff671d"/>
        <path id="Path_4071" data-name="Path 4071" d="M222.926,317.631l-4.015,11.043a21.2,21.2,0,0,0-.878,6.777c0,2.259,2.259,3.89,5.4,5.019v2.259c-3.137,0-6.4-.5-9.537-.5-3.263,0-6.526.5-10.415.5v-2.259c6.274-2.008,7.153-5.019,9.412-10.541l30.369-76.3h2.133l27.232,76.3c2.133,6.023,3.89,8.283,9.913,10.541v2.259c-3.764,0-7.529-.5-11.295-.5s-7.529.5-11.294.5v-2.259c1.631-1.129,4.393-2.761,4.393-4.265a15.567,15.567,0,0,0-1.38-5.4l-4.9-13.175Zm2.008-5.145h31.5l-14.807-40.91Z" transform="translate(-153.264 -214.361)" fill="#ff671d"/>
        <path id="Path_4072" data-name="Path 4072" d="M373.536,340.72a107.071,107.071,0,0,1-26.73,3.514c-29.992,0-49.945-18.32-49.945-45.3s19.953-45.3,49.945-45.3c11.295,0,23.217,4.517,25.726,4.517.5,0,1.13-.5,1.756-.627l1.381,13.428h-2.259c-4.393-9.663-17.193-13.3-26.6-13.3-22.461,0-38.023,14.808-38.023,41.286,0,18.949,17.066,41.287,38.023,41.287,14.934,0,23.467-3.765,29.491-13.052l1.631.879Z" transform="translate(-166.085 -214.361)" fill="#ff671d"/>
        <path id="Path_4073" data-name="Path 4073" d="M428.735,257.634c-4.9,0-6.275,3.64-6.275,7.53l-.627,68.017c0,3.89,2.008,7.529,5.772,7.529v2.259c-2.636,0-6.4-.5-10.666-.5-3.765,0-7.531.5-10.039.5v-2.259c3.514,0,5.521-3.639,5.521-7.529l-.627-68.017c0-3.89-1.38-7.53-6.275-7.53v-2.258c3.89,0,7.656.5,11.421.5,4.266,0,8.03-.5,11.8-.5Z" transform="translate(-181.003 -214.6)" fill="#ff671d"/>
        <path id="Path_4074" data-name="Path 4074" d="M467.789,295.908h16.689c7.028,0,9.413-1.631,10.793-6.9h2.259c-.125,3.138-.376,6.023-.376,8.91a78.324,78.324,0,0,0,.627,9.036h-2.259c-1.631-5.145-4.017-6.776-11.044-6.776H467.789v33.13c0,3.89,1.631,7.529,5.9,7.529v2.259c-3.138,0-6.9-.5-11.169-.5-3.766,0-7.531.5-10.667.5v-2.259c4.267,0,5.9-3.639,5.9-7.529V294.4c0-20.33-1.38-30.494-2.259-34.259-.252-1.129-1.38-1.757-5.9-2.008v-2.259h33.255c7.279,0,12.8-.5,17.067-.5V268.3h-2.259c-.5-5.02-2.636-8.157-9.035-8.157H467.789Z" transform="translate(-187.054 -214.6)" fill="#ff671d"/>
        <path id="Path_4075" data-name="Path 4075" d="M548.3,257.634c-4.894,0-6.274,3.64-6.274,7.53L541.4,333.18c0,3.89,2.007,7.529,5.772,7.529v2.259c-2.636,0-6.4-.5-10.667-.5-3.765,0-7.53.5-10.04.5v-2.259c3.514,0,5.521-3.639,5.521-7.529l-.626-68.017c0-3.89-1.381-7.53-6.275-7.53v-2.258c3.891,0,7.656.5,11.42.5,4.266,0,8.03-.5,11.8-.5Z" transform="translate(-197.419 -214.6)" fill="#ff671d"/>
        <path id="Path_4076" data-name="Path 4076" d="M643.8,340.72a107.048,107.048,0,0,1-26.729,3.514c-29.992,0-49.946-18.32-49.946-45.3s19.953-45.3,49.946-45.3c11.3,0,23.215,4.517,25.726,4.517.5,0,1.13-.5,1.757-.627l1.38,13.428h-2.26c-4.391-9.663-17.193-13.3-26.6-13.3-22.463,0-38.024,14.808-38.024,41.286,0,18.949,17.067,41.287,38.024,41.287,14.934,0,23.468-3.765,29.491-13.052l1.631.879Z" transform="translate(-203.19 -214.361)" fill="#ff671d"/>
      </g>
    </g>
  </g>
</svg>
